<?xml version="1.0" encoding="utf-8" standalone="no"?>
<!DOCTYPE svg PUBLIC "-//W3C//DTD SVG 1.1//EN"
  "http://www.w3.org/Graphics/SVG/1.1/DTD/svg11.dtd">
<!-- Created with matplotlib (https://matplotlib.org/) -->
<svg height="357.238125pt" version="1.1" viewBox="0 0 592.125 357.238125" width="592.125pt" xmlns="http://www.w3.org/2000/svg" xmlns:xlink="http://www.w3.org/1999/xlink">
 <metadata>
  <rdf:RDF xmlns:cc="http://creativecommons.org/ns#" xmlns:dc="http://purl.org/dc/elements/1.1/" xmlns:rdf="http://www.w3.org/1999/02/22-rdf-syntax-ns#">
   <cc:Work>
    <dc:type rdf:resource="http://purl.org/dc/dcmitype/StillImage"/>
    <dc:date>2020-11-30T18:32:00.062640</dc:date>
    <dc:format>image/svg+xml</dc:format>
    <dc:creator>
     <cc:Agent>
      <dc:title>Matplotlib v3.3.2, https://matplotlib.org/</dc:title>
     </cc:Agent>
    </dc:creator>
   </cc:Work>
  </rdf:RDF>
 </metadata>
 <defs>
  <style type="text/css">*{stroke-linecap:butt;stroke-linejoin:round;}</style>
 </defs>
 <g id="figure_1">
  <g id="patch_1">
   <path d="M 0 357.238125 
L 592.125 357.238125 
L 592.125 0 
L 0 0 
z
" style="fill:none;"/>
  </g>
  <g id="axes_1">
   <g id="patch_2">
    <path d="M 26.925 333.36 
L 584.925 333.36 
L 584.925 7.2 
L 26.925 7.2 
z
" style="fill:#ffffff;"/>
   </g>
   <g id="matplotlib.axis_1">
    <g id="xtick_1">
     <g id="line2d_1">
      <path clip-path="url(#p76490f0ab4)" d="M 52.288636 333.36 
L 52.288636 7.2 
" style="fill:none;stroke:#b0b0b0;stroke-linecap:square;stroke-width:0.8;"/>
     </g>
     <g id="line2d_2">
      <defs>
       <path d="M 0 0 
L 0 3.5 
" id="m19957c1598" style="stroke:#000000;stroke-width:0.8;"/>
      </defs>
      <g>
       <use style="stroke:#000000;stroke-width:0.8;" x="52.288636" xlink:href="#m19957c1598" y="333.36"/>
      </g>
     </g>
     <g id="text_1">
      <!-- 0 -->
      <g transform="translate(49.107386 347.958438)scale(0.1 -0.1)">
       <defs>
        <path d="M 31.78125 66.40625 
Q 24.171875 66.40625 20.328125 58.90625 
Q 16.5 51.421875 16.5 36.375 
Q 16.5 21.390625 20.328125 13.890625 
Q 24.171875 6.390625 31.78125 6.390625 
Q 39.453125 6.390625 43.28125 13.890625 
Q 47.125 21.390625 47.125 36.375 
Q 47.125 51.421875 43.28125 58.90625 
Q 39.453125 66.40625 31.78125 66.40625 
z
M 31.78125 74.21875 
Q 44.046875 74.21875 50.515625 64.515625 
Q 56.984375 54.828125 56.984375 36.375 
Q 56.984375 17.96875 50.515625 8.265625 
Q 44.046875 -1.421875 31.78125 -1.421875 
Q 19.53125 -1.421875 13.0625 8.265625 
Q 6.59375 17.96875 6.59375 36.375 
Q 6.59375 54.828125 13.0625 64.515625 
Q 19.53125 74.21875 31.78125 74.21875 
z
" id="DejaVuSans-48"/>
       </defs>
       <use xlink:href="#DejaVuSans-48"/>
      </g>
     </g>
    </g>
    <g id="xtick_2">
     <g id="line2d_3">
      <path clip-path="url(#p76490f0ab4)" d="M 116.016366 333.36 
L 116.016366 7.2 
" style="fill:none;stroke:#b0b0b0;stroke-linecap:square;stroke-width:0.8;"/>
     </g>
     <g id="line2d_4">
      <g>
       <use style="stroke:#000000;stroke-width:0.8;" x="116.016366" xlink:href="#m19957c1598" y="333.36"/>
      </g>
     </g>
     <g id="text_2">
      <!-- 25 -->
      <g transform="translate(109.653866 347.958438)scale(0.1 -0.1)">
       <defs>
        <path d="M 19.1875 8.296875 
L 53.609375 8.296875 
L 53.609375 0 
L 7.328125 0 
L 7.328125 8.296875 
Q 12.9375 14.109375 22.625 23.890625 
Q 32.328125 33.6875 34.8125 36.53125 
Q 39.546875 41.84375 41.421875 45.53125 
Q 43.3125 49.21875 43.3125 52.78125 
Q 43.3125 58.59375 39.234375 62.25 
Q 35.15625 65.921875 28.609375 65.921875 
Q 23.96875 65.921875 18.8125 64.3125 
Q 13.671875 62.703125 7.8125 59.421875 
L 7.8125 69.390625 
Q 13.765625 71.78125 18.9375 73 
Q 24.125 74.21875 28.421875 74.21875 
Q 39.75 74.21875 46.484375 68.546875 
Q 53.21875 62.890625 53.21875 53.421875 
Q 53.21875 48.921875 51.53125 44.890625 
Q 49.859375 40.875 45.40625 35.40625 
Q 44.1875 33.984375 37.640625 27.21875 
Q 31.109375 20.453125 19.1875 8.296875 
z
" id="DejaVuSans-50"/>
        <path d="M 10.796875 72.90625 
L 49.515625 72.90625 
L 49.515625 64.59375 
L 19.828125 64.59375 
L 19.828125 46.734375 
Q 21.96875 47.46875 24.109375 47.828125 
Q 26.265625 48.1875 28.421875 48.1875 
Q 40.625 48.1875 47.75 41.5 
Q 54.890625 34.8125 54.890625 23.390625 
Q 54.890625 11.625 47.5625 5.09375 
Q 40.234375 -1.421875 26.90625 -1.421875 
Q 22.3125 -1.421875 17.546875 -0.640625 
Q 12.796875 0.140625 7.71875 1.703125 
L 7.71875 11.625 
Q 12.109375 9.234375 16.796875 8.0625 
Q 21.484375 6.890625 26.703125 6.890625 
Q 35.15625 6.890625 40.078125 11.328125 
Q 45.015625 15.765625 45.015625 23.390625 
Q 45.015625 31 40.078125 35.4375 
Q 35.15625 39.890625 26.703125 39.890625 
Q 22.75 39.890625 18.8125 39.015625 
Q 14.890625 38.140625 10.796875 36.28125 
z
" id="DejaVuSans-53"/>
       </defs>
       <use xlink:href="#DejaVuSans-50"/>
       <use x="63.623047" xlink:href="#DejaVuSans-53"/>
      </g>
     </g>
    </g>
    <g id="xtick_3">
     <g id="line2d_5">
      <path clip-path="url(#p76490f0ab4)" d="M 179.744095 333.36 
L 179.744095 7.2 
" style="fill:none;stroke:#b0b0b0;stroke-linecap:square;stroke-width:0.8;"/>
     </g>
     <g id="line2d_6">
      <g>
       <use style="stroke:#000000;stroke-width:0.8;" x="179.744095" xlink:href="#m19957c1598" y="333.36"/>
      </g>
     </g>
     <g id="text_3">
      <!-- 50 -->
      <g transform="translate(173.381595 347.958438)scale(0.1 -0.1)">
       <use xlink:href="#DejaVuSans-53"/>
       <use x="63.623047" xlink:href="#DejaVuSans-48"/>
      </g>
     </g>
    </g>
    <g id="xtick_4">
     <g id="line2d_7">
      <path clip-path="url(#p76490f0ab4)" d="M 243.471825 333.36 
L 243.471825 7.2 
" style="fill:none;stroke:#b0b0b0;stroke-linecap:square;stroke-width:0.8;"/>
     </g>
     <g id="line2d_8">
      <g>
       <use style="stroke:#000000;stroke-width:0.8;" x="243.471825" xlink:href="#m19957c1598" y="333.36"/>
      </g>
     </g>
     <g id="text_4">
      <!-- 75 -->
      <g transform="translate(237.109325 347.958438)scale(0.1 -0.1)">
       <defs>
        <path d="M 8.203125 72.90625 
L 55.078125 72.90625 
L 55.078125 68.703125 
L 28.609375 0 
L 18.3125 0 
L 43.21875 64.59375 
L 8.203125 64.59375 
z
" id="DejaVuSans-55"/>
       </defs>
       <use xlink:href="#DejaVuSans-55"/>
       <use x="63.623047" xlink:href="#DejaVuSans-53"/>
      </g>
     </g>
    </g>
    <g id="xtick_5">
     <g id="line2d_9">
      <path clip-path="url(#p76490f0ab4)" d="M 307.199555 333.36 
L 307.199555 7.2 
" style="fill:none;stroke:#b0b0b0;stroke-linecap:square;stroke-width:0.8;"/>
     </g>
     <g id="line2d_10">
      <g>
       <use style="stroke:#000000;stroke-width:0.8;" x="307.199555" xlink:href="#m19957c1598" y="333.36"/>
      </g>
     </g>
     <g id="text_5">
      <!-- 100 -->
      <g transform="translate(297.655805 347.958438)scale(0.1 -0.1)">
       <defs>
        <path d="M 12.40625 8.296875 
L 28.515625 8.296875 
L 28.515625 63.921875 
L 10.984375 60.40625 
L 10.984375 69.390625 
L 28.421875 72.90625 
L 38.28125 72.90625 
L 38.28125 8.296875 
L 54.390625 8.296875 
L 54.390625 0 
L 12.40625 0 
z
" id="DejaVuSans-49"/>
       </defs>
       <use xlink:href="#DejaVuSans-49"/>
       <use x="63.623047" xlink:href="#DejaVuSans-48"/>
       <use x="127.246094" xlink:href="#DejaVuSans-48"/>
      </g>
     </g>
    </g>
    <g id="xtick_6">
     <g id="line2d_11">
      <path clip-path="url(#p76490f0ab4)" d="M 370.927284 333.36 
L 370.927284 7.2 
" style="fill:none;stroke:#b0b0b0;stroke-linecap:square;stroke-width:0.8;"/>
     </g>
     <g id="line2d_12">
      <g>
       <use style="stroke:#000000;stroke-width:0.8;" x="370.927284" xlink:href="#m19957c1598" y="333.36"/>
      </g>
     </g>
     <g id="text_6">
      <!-- 125 -->
      <g transform="translate(361.383534 347.958438)scale(0.1 -0.1)">
       <use xlink:href="#DejaVuSans-49"/>
       <use x="63.623047" xlink:href="#DejaVuSans-50"/>
       <use x="127.246094" xlink:href="#DejaVuSans-53"/>
      </g>
     </g>
    </g>
    <g id="xtick_7">
     <g id="line2d_13">
      <path clip-path="url(#p76490f0ab4)" d="M 434.655014 333.36 
L 434.655014 7.2 
" style="fill:none;stroke:#b0b0b0;stroke-linecap:square;stroke-width:0.8;"/>
     </g>
     <g id="line2d_14">
      <g>
       <use style="stroke:#000000;stroke-width:0.8;" x="434.655014" xlink:href="#m19957c1598" y="333.36"/>
      </g>
     </g>
     <g id="text_7">
      <!-- 150 -->
      <g transform="translate(425.111264 347.958438)scale(0.1 -0.1)">
       <use xlink:href="#DejaVuSans-49"/>
       <use x="63.623047" xlink:href="#DejaVuSans-53"/>
       <use x="127.246094" xlink:href="#DejaVuSans-48"/>
      </g>
     </g>
    </g>
    <g id="xtick_8">
     <g id="line2d_15">
      <path clip-path="url(#p76490f0ab4)" d="M 498.382743 333.36 
L 498.382743 7.2 
" style="fill:none;stroke:#b0b0b0;stroke-linecap:square;stroke-width:0.8;"/>
     </g>
     <g id="line2d_16">
      <g>
       <use style="stroke:#000000;stroke-width:0.8;" x="498.382743" xlink:href="#m19957c1598" y="333.36"/>
      </g>
     </g>
     <g id="text_8">
      <!-- 175 -->
      <g transform="translate(488.838993 347.958438)scale(0.1 -0.1)">
       <use xlink:href="#DejaVuSans-49"/>
       <use x="63.623047" xlink:href="#DejaVuSans-55"/>
       <use x="127.246094" xlink:href="#DejaVuSans-53"/>
      </g>
     </g>
    </g>
    <g id="xtick_9">
     <g id="line2d_17">
      <path clip-path="url(#p76490f0ab4)" d="M 562.110473 333.36 
L 562.110473 7.2 
" style="fill:none;stroke:#b0b0b0;stroke-linecap:square;stroke-width:0.8;"/>
     </g>
     <g id="line2d_18">
      <g>
       <use style="stroke:#000000;stroke-width:0.8;" x="562.110473" xlink:href="#m19957c1598" y="333.36"/>
      </g>
     </g>
     <g id="text_9">
      <!-- 200 -->
      <g transform="translate(552.566723 347.958438)scale(0.1 -0.1)">
       <use xlink:href="#DejaVuSans-50"/>
       <use x="63.623047" xlink:href="#DejaVuSans-48"/>
       <use x="127.246094" xlink:href="#DejaVuSans-48"/>
      </g>
     </g>
    </g>
   </g>
   <g id="matplotlib.axis_2">
    <g id="ytick_1">
     <g id="line2d_19">
      <path clip-path="url(#p76490f0ab4)" d="M 26.925 292.676193 
L 584.925 292.676193 
" style="fill:none;stroke:#b0b0b0;stroke-linecap:square;stroke-width:0.8;"/>
     </g>
     <g id="line2d_20">
      <defs>
       <path d="M 0 0 
L -3.5 0 
" id="m4b39d2ae77" style="stroke:#000000;stroke-width:0.8;"/>
      </defs>
      <g>
       <use style="stroke:#000000;stroke-width:0.8;" x="26.925" xlink:href="#m4b39d2ae77" y="292.676193"/>
      </g>
     </g>
     <g id="text_10">
      <!-- 4 -->
      <g transform="translate(13.5625 296.475411)scale(0.1 -0.1)">
       <defs>
        <path d="M 37.796875 64.3125 
L 12.890625 25.390625 
L 37.796875 25.390625 
z
M 35.203125 72.90625 
L 47.609375 72.90625 
L 47.609375 25.390625 
L 58.015625 25.390625 
L 58.015625 17.1875 
L 47.609375 17.1875 
L 47.609375 0 
L 37.796875 0 
L 37.796875 17.1875 
L 4.890625 17.1875 
L 4.890625 26.703125 
z
" id="DejaVuSans-52"/>
       </defs>
       <use xlink:href="#DejaVuSans-52"/>
      </g>
     </g>
    </g>
    <g id="ytick_2">
     <g id="line2d_21">
      <path clip-path="url(#p76490f0ab4)" d="M 26.925 249.578939 
L 584.925 249.578939 
" style="fill:none;stroke:#b0b0b0;stroke-linecap:square;stroke-width:0.8;"/>
     </g>
     <g id="line2d_22">
      <g>
       <use style="stroke:#000000;stroke-width:0.8;" x="26.925" xlink:href="#m4b39d2ae77" y="249.578939"/>
      </g>
     </g>
     <g id="text_11">
      <!-- 6 -->
      <g transform="translate(13.5625 253.378158)scale(0.1 -0.1)">
       <defs>
        <path d="M 33.015625 40.375 
Q 26.375 40.375 22.484375 35.828125 
Q 18.609375 31.296875 18.609375 23.390625 
Q 18.609375 15.53125 22.484375 10.953125 
Q 26.375 6.390625 33.015625 6.390625 
Q 39.65625 6.390625 43.53125 10.953125 
Q 47.40625 15.53125 47.40625 23.390625 
Q 47.40625 31.296875 43.53125 35.828125 
Q 39.65625 40.375 33.015625 40.375 
z
M 52.59375 71.296875 
L 52.59375 62.3125 
Q 48.875 64.0625 45.09375 64.984375 
Q 41.3125 65.921875 37.59375 65.921875 
Q 27.828125 65.921875 22.671875 59.328125 
Q 17.53125 52.734375 16.796875 39.40625 
Q 19.671875 43.65625 24.015625 45.921875 
Q 28.375 48.1875 33.59375 48.1875 
Q 44.578125 48.1875 50.953125 41.515625 
Q 57.328125 34.859375 57.328125 23.390625 
Q 57.328125 12.15625 50.6875 5.359375 
Q 44.046875 -1.421875 33.015625 -1.421875 
Q 20.359375 -1.421875 13.671875 8.265625 
Q 6.984375 17.96875 6.984375 36.375 
Q 6.984375 53.65625 15.1875 63.9375 
Q 23.390625 74.21875 37.203125 74.21875 
Q 40.921875 74.21875 44.703125 73.484375 
Q 48.484375 72.75 52.59375 71.296875 
z
" id="DejaVuSans-54"/>
       </defs>
       <use xlink:href="#DejaVuSans-54"/>
      </g>
     </g>
    </g>
    <g id="ytick_3">
     <g id="line2d_23">
      <path clip-path="url(#p76490f0ab4)" d="M 26.925 206.481686 
L 584.925 206.481686 
" style="fill:none;stroke:#b0b0b0;stroke-linecap:square;stroke-width:0.8;"/>
     </g>
     <g id="line2d_24">
      <g>
       <use style="stroke:#000000;stroke-width:0.8;" x="26.925" xlink:href="#m4b39d2ae77" y="206.481686"/>
      </g>
     </g>
     <g id="text_12">
      <!-- 8 -->
      <g transform="translate(13.5625 210.280905)scale(0.1 -0.1)">
       <defs>
        <path d="M 31.78125 34.625 
Q 24.75 34.625 20.71875 30.859375 
Q 16.703125 27.09375 16.703125 20.515625 
Q 16.703125 13.921875 20.71875 10.15625 
Q 24.75 6.390625 31.78125 6.390625 
Q 38.8125 6.390625 42.859375 10.171875 
Q 46.921875 13.96875 46.921875 20.515625 
Q 46.921875 27.09375 42.890625 30.859375 
Q 38.875 34.625 31.78125 34.625 
z
M 21.921875 38.8125 
Q 15.578125 40.375 12.03125 44.71875 
Q 8.5 49.078125 8.5 55.328125 
Q 8.5 64.0625 14.71875 69.140625 
Q 20.953125 74.21875 31.78125 74.21875 
Q 42.671875 74.21875 48.875 69.140625 
Q 55.078125 64.0625 55.078125 55.328125 
Q 55.078125 49.078125 51.53125 44.71875 
Q 48 40.375 41.703125 38.8125 
Q 48.828125 37.15625 52.796875 32.3125 
Q 56.78125 27.484375 56.78125 20.515625 
Q 56.78125 9.90625 50.3125 4.234375 
Q 43.84375 -1.421875 31.78125 -1.421875 
Q 19.734375 -1.421875 13.25 4.234375 
Q 6.78125 9.90625 6.78125 20.515625 
Q 6.78125 27.484375 10.78125 32.3125 
Q 14.796875 37.15625 21.921875 38.8125 
z
M 18.3125 54.390625 
Q 18.3125 48.734375 21.84375 45.5625 
Q 25.390625 42.390625 31.78125 42.390625 
Q 38.140625 42.390625 41.71875 45.5625 
Q 45.3125 48.734375 45.3125 54.390625 
Q 45.3125 60.0625 41.71875 63.234375 
Q 38.140625 66.40625 31.78125 66.40625 
Q 25.390625 66.40625 21.84375 63.234375 
Q 18.3125 60.0625 18.3125 54.390625 
z
" id="DejaVuSans-56"/>
       </defs>
       <use xlink:href="#DejaVuSans-56"/>
      </g>
     </g>
    </g>
    <g id="ytick_4">
     <g id="line2d_25">
      <path clip-path="url(#p76490f0ab4)" d="M 26.925 163.384433 
L 584.925 163.384433 
" style="fill:none;stroke:#b0b0b0;stroke-linecap:square;stroke-width:0.8;"/>
     </g>
     <g id="line2d_26">
      <g>
       <use style="stroke:#000000;stroke-width:0.8;" x="26.925" xlink:href="#m4b39d2ae77" y="163.384433"/>
      </g>
     </g>
     <g id="text_13">
      <!-- 10 -->
      <g transform="translate(7.2 167.183652)scale(0.1 -0.1)">
       <use xlink:href="#DejaVuSans-49"/>
       <use x="63.623047" xlink:href="#DejaVuSans-48"/>
      </g>
     </g>
    </g>
    <g id="ytick_5">
     <g id="line2d_27">
      <path clip-path="url(#p76490f0ab4)" d="M 26.925 120.28718 
L 584.925 120.28718 
" style="fill:none;stroke:#b0b0b0;stroke-linecap:square;stroke-width:0.8;"/>
     </g>
     <g id="line2d_28">
      <g>
       <use style="stroke:#000000;stroke-width:0.8;" x="26.925" xlink:href="#m4b39d2ae77" y="120.28718"/>
      </g>
     </g>
     <g id="text_14">
      <!-- 12 -->
      <g transform="translate(7.2 124.086399)scale(0.1 -0.1)">
       <use xlink:href="#DejaVuSans-49"/>
       <use x="63.623047" xlink:href="#DejaVuSans-50"/>
      </g>
     </g>
    </g>
    <g id="ytick_6">
     <g id="line2d_29">
      <path clip-path="url(#p76490f0ab4)" d="M 26.925 77.189927 
L 584.925 77.189927 
" style="fill:none;stroke:#b0b0b0;stroke-linecap:square;stroke-width:0.8;"/>
     </g>
     <g id="line2d_30">
      <g>
       <use style="stroke:#000000;stroke-width:0.8;" x="26.925" xlink:href="#m4b39d2ae77" y="77.189927"/>
      </g>
     </g>
     <g id="text_15">
      <!-- 14 -->
      <g transform="translate(7.2 80.989146)scale(0.1 -0.1)">
       <use xlink:href="#DejaVuSans-49"/>
       <use x="63.623047" xlink:href="#DejaVuSans-52"/>
      </g>
     </g>
    </g>
    <g id="ytick_7">
     <g id="line2d_31">
      <path clip-path="url(#p76490f0ab4)" d="M 26.925 34.092674 
L 584.925 34.092674 
" style="fill:none;stroke:#b0b0b0;stroke-linecap:square;stroke-width:0.8;"/>
     </g>
     <g id="line2d_32">
      <g>
       <use style="stroke:#000000;stroke-width:0.8;" x="26.925" xlink:href="#m4b39d2ae77" y="34.092674"/>
      </g>
     </g>
     <g id="text_16">
      <!-- 16 -->
      <g transform="translate(7.2 37.891893)scale(0.1 -0.1)">
       <use xlink:href="#DejaVuSans-49"/>
       <use x="63.623047" xlink:href="#DejaVuSans-54"/>
      </g>
     </g>
    </g>
   </g>
   <g id="line2d_33">
    <path clip-path="url(#p76490f0ab4)" d="M 52.288636 291.383276 
L 54.837746 289.443897 
L 57.386855 289.659388 
L 59.935964 291.814248 
L 62.485073 299.14078 
L 65.034182 302.157589 
L 67.583291 305.820852 
L 70.132401 304.096964 
L 72.68151 301.295645 
L 75.230619 296.339461 
L 77.779728 300.649182 
L 80.328837 297.632377 
L 82.877947 293.538137 
L 85.427056 294.400081 
L 87.976165 299.14078 
L 90.525274 287.720008 
L 93.074383 289.659388 
L 95.623492 293.107165 
L 98.172602 279.9625 
L 100.721711 284.703203 
L 103.27082 287.720008 
L 105.819929 297.632377 
L 108.369038 288.581952 
L 110.918148 297.847863 
L 113.467257 296.770433 
L 116.016366 289.228416 
L 118.565475 289.012924 
L 121.114584 283.841259 
L 123.663693 287.935499 
L 126.212803 300.21821 
L 128.761912 303.450506 
L 131.311021 308.837662 
L 133.86013 317.457115 
L 136.409239 318.534545 
L 138.958349 312.285445 
L 141.507458 308.40669 
L 144.056567 305.38988 
L 146.605676 295.046539 
L 149.154785 276.730214 
L 151.703894 250.656375 
L 154.253004 265.309437 
L 156.802113 270.481103 
L 159.351222 273.713399 
L 161.900331 257.982901 
L 164.44944 275.868259 
L 166.99855 273.497918 
L 169.547659 277.592158 
L 172.096768 276.083751 
L 174.645877 253.457689 
L 177.194986 257.336448 
L 179.744095 248.716995 
L 182.293205 255.397068 
L 184.842314 248.501504 
L 187.391423 260.784225 
L 189.940532 262.723605 
L 192.489641 272.635974 
L 195.038751 273.92889 
L 197.58786 271.558538 
L 202.686078 281.039935 
L 205.235187 288.15098 
L 207.784296 289.874869 
L 210.333406 287.935499 
L 212.882515 280.177991 
L 215.431624 283.194796 
L 217.980733 283.410287 
L 220.529842 283.194796 
L 223.078952 288.797443 
L 225.628061 283.625768 
L 228.17717 277.807639 
L 230.726279 285.565147 
L 233.275388 291.383276 
L 235.824497 289.874869 
L 238.373607 288.797443 
L 240.922716 283.194796 
L 243.471825 282.548343 
L 246.020934 289.659388 
L 248.570043 270.912075 
L 251.119153 271.98951 
L 253.668262 269.619158 
L 256.217371 284.703203 
L 258.76648 277.161186 
L 261.315589 277.807639 
L 263.864698 278.885074 
L 266.413808 276.299231 
L 268.962917 272.205001 
L 271.512026 273.713399 
L 274.061135 273.92889 
L 276.610244 274.790834 
L 279.159354 283.841259 
L 281.708463 282.763824 
L 284.257572 285.134175 
L 286.806681 284.487712 
L 289.35579 285.349656 
L 291.904899 283.194796 
L 294.454009 286.427092 
L 297.003118 287.504527 
L 299.552227 290.736813 
L 302.101336 287.073545 
L 304.650445 288.15098 
L 307.199555 285.349656 
L 309.748664 287.073545 
L 312.297773 290.952304 
L 314.846882 288.581952 
L 317.395991 289.012924 
L 319.945101 293.538137 
L 322.49421 295.908489 
L 325.043319 292.460701 
L 327.592428 290.305841 
L 330.141537 290.305841 
L 332.690646 292.029729 
L 335.239756 292.460701 
L 337.788865 293.969109 
L 340.337974 291.383276 
L 342.887083 290.521332 
L 345.436192 292.460701 
L 347.985302 289.443897 
L 350.534411 283.410287 
L 353.08352 279.100555 
L 355.632629 283.410287 
L 358.181738 289.228416 
L 360.730847 285.565147 
L 363.279957 285.134175 
L 365.829066 281.470907 
L 368.378175 278.885074 
L 370.927284 276.514723 
L 373.476393 279.100555 
L 376.025503 275.221806 
L 378.574612 277.161186 
L 381.123721 279.531527 
L 383.67283 270.481103 
L 386.221939 273.92889 
L 388.771048 271.558538 
L 391.320158 268.757214 
L 396.418376 262.723605 
L 398.967485 234.925877 
L 401.516594 214.023704 
L 404.065704 212.730787 
L 406.614813 210.360435 
L 409.163922 214.023704 
L 411.713031 212.946278 
L 414.26214 220.488296 
L 416.811249 244.622755 
L 419.360359 247.63956 
L 421.909468 229.969693 
L 424.458577 226.090933 
L 427.007686 191.828614 
L 429.556795 180.623339 
L 432.105905 174.8052 
L 434.655014 190.320216 
L 437.204123 151.317193 
L 439.753232 162.522489 
L 442.302341 181.916245 
L 444.85145 162.953451 
L 447.40056 161.445054 
L 449.949669 155.842406 
L 452.498778 159.074712 
L 455.047887 168.340607 
L 457.596996 176.529088 
L 460.146106 175.020691 
L 462.695215 182.131736 
L 465.244324 177.175562 
L 467.793433 88.179731 
L 470.342542 119.856198 
L 472.891651 124.596901 
L 475.440761 122.873013 
L 477.98987 114.900023 
L 480.538979 80.853195 
L 483.088088 92.05847 
L 485.637197 79.129307 
L 488.186307 80.206742 
L 490.735416 75.035056 
L 493.284525 57.58068 
L 495.833634 55.6413 
L 498.382743 89.041676 
L 500.931852 105.418637 
L 503.480962 124.165939 
L 506.030071 126.105319 
L 508.57918 153.256573 
L 511.128289 147.222963 
L 513.677398 129.553096 
L 516.226508 143.775186 
L 518.775617 132.138929 
L 521.324726 123.303995 
L 523.873835 131.276985 
L 526.422944 139.680936 
L 528.972053 125.674337 
L 531.521163 139.034483 
L 534.070272 141.620315 
L 536.619381 118.994253 
L 539.16849 128.260169 
L 541.717599 129.553096 
L 544.266709 110.374811 
L 546.815818 104.987654 
L 549.364927 79.344798 
L 551.914036 84.300972 
L 554.463145 61.028457 
L 557.012254 32.368785 
L 559.561364 22.025455 
L 559.561364 22.025455 
" style="fill:none;stroke:#0000ff;stroke-linecap:square;stroke-width:1.5;"/>
   </g>
   <g id="line2d_34">
    <path clip-path="url(#p76490f0ab4)" d="M 52.288636 290.494822 
L 54.837746 288.608133 
L 59.935964 293.253725 
L 62.485073 295.139262 
L 65.034182 294.519155 
L 67.583291 294.655599 
L 70.132401 293.99322 
L 72.68151 293.110848 
L 75.230619 292.9018 
L 77.779728 292.408431 
L 80.328837 289.840262 
L 82.877947 286.367547 
L 85.427056 288.125857 
L 87.976165 286.588823 
L 90.525274 281.955762 
L 93.074383 284.180751 
L 95.623492 286.140691 
L 98.172602 287.913377 
L 100.721711 288.899754 
L 103.27082 288.429571 
L 105.819929 291.101017 
L 108.369038 289.245216 
L 110.918148 288.787775 
L 113.467257 291.219243 
L 116.016366 291.162915 
L 118.565475 290.473706 
L 121.114584 291.049559 
L 123.663693 288.642915 
L 126.212803 292.945613 
L 128.761912 291.065814 
L 131.311021 290.088295 
L 133.86013 291.019607 
L 136.409239 290.203315 
L 138.958349 287.757584 
L 144.056567 278.479266 
L 146.605676 267.812185 
L 149.154785 264.237016 
L 151.703894 260.350314 
L 154.253004 264.731283 
L 156.802113 267.236826 
L 159.351222 264.807905 
L 161.900331 267.552479 
L 164.44944 268.338562 
L 166.99855 272.273866 
L 169.547659 271.321079 
L 172.096768 271.748495 
L 174.645877 266.82886 
L 177.194986 256.406389 
L 179.744095 254.811413 
L 182.293205 261.55173 
L 184.842314 261.736827 
L 187.391423 265.488914 
L 189.940532 266.55332 
L 192.489641 273.441805 
L 195.038751 278.378271 
L 197.58786 282.161646 
L 200.136969 281.435458 
L 202.686078 281.700527 
L 205.235187 282.669703 
L 207.784296 281.405506 
L 210.333406 281.678805 
L 212.882515 279.231872 
L 215.431624 277.883388 
L 217.980733 277.938432 
L 220.529842 278.786546 
L 223.078952 280.228206 
L 225.628061 281.276912 
L 228.17717 278.892349 
L 230.726279 281.025098 
L 233.275388 280.094741 
L 235.824497 279.936863 
L 238.373607 278.978702 
L 240.922716 276.029652 
L 243.471825 275.040357 
L 246.020934 275.020443 
L 248.570043 277.234469 
L 251.119153 276.163424 
L 256.217371 277.397258 
L 258.76648 277.795966 
L 263.864698 276.837877 
L 266.413808 274.970938 
L 268.962917 273.317845 
L 271.512026 275.675076 
L 274.061135 276.655626 
L 276.610244 278.524652 
L 279.159354 276.885729 
L 281.708463 277.613828 
L 284.257572 282.703251 
L 286.806681 280.975284 
L 289.35579 278.219417 
L 291.904899 274.723008 
L 297.003118 274.517792 
L 299.552227 277.76998 
L 302.101336 277.829309 
L 304.650445 279.563689 
L 307.199555 282.181405 
L 309.748664 287.792448 
L 312.297773 290.634893 
L 314.846882 289.031944 
L 317.395991 288.85369 
L 319.945101 288.890999 
L 322.49421 290.444782 
L 325.043319 290.877809 
L 327.592428 287.984245 
L 330.141537 286.649673 
L 335.239756 286.402647 
L 337.788865 283.513532 
L 340.337974 282.696768 
L 342.887083 279.354044 
L 345.436192 279.08805 
L 347.985302 279.052437 
L 350.534411 276.105585 
L 353.08352 278.3502 
L 355.632629 276.388656 
L 358.181738 275.490389 
L 360.730847 275.158429 
L 363.279957 274.403059 
L 365.829066 275.415463 
L 368.378175 274.412995 
L 370.927284 273.054194 
L 373.476393 276.824674 
L 376.025503 276.817573 
L 378.574612 276.955117 
L 381.123721 276.958672 
L 383.67283 276.035601 
L 386.221939 275.674151 
L 388.771048 270.008722 
L 391.320158 265.644295 
L 393.869267 258.196553 
L 396.418376 252.549794 
L 401.516594 221.333759 
L 404.065704 210.11194 
L 406.614813 213.725446 
L 409.163922 214.429481 
L 411.713031 218.783653 
L 414.26214 230.690856 
L 416.811249 235.370412 
L 419.360359 240.490486 
L 421.909468 247.750254 
L 427.007686 197.900221 
L 429.556795 190.037546 
L 432.105905 190.887345 
L 434.655014 191.536429 
L 437.204123 172.134802 
L 439.753232 178.755371 
L 442.302341 189.213682 
L 444.85145 189.875691 
L 447.40056 187.230386 
L 449.949669 174.21861 
L 452.498778 174.344214 
L 455.047887 179.447919 
L 457.596996 181.697465 
L 460.146106 172.968859 
L 462.695215 109.040249 
L 465.244324 100.327159 
L 467.793433 113.967468 
L 470.342542 138.969523 
L 472.891651 136.590201 
L 475.440761 136.467906 
L 477.98987 123.598338 
L 480.538979 102.38049 
L 483.088088 106.569314 
L 485.637197 92.224312 
L 488.186307 88.446784 
L 490.735416 96.122676 
L 493.284525 97.209873 
L 495.833634 67.377556 
L 498.382743 103.270527 
L 503.480962 129.804694 
L 506.030071 131.693828 
L 508.57918 148.594721 
L 511.128289 148.224835 
L 513.677398 140.018825 
L 516.226508 143.583554 
L 518.775617 143.985191 
L 521.324726 136.824516 
L 523.873835 142.059477 
L 526.422944 146.947506 
L 528.972053 133.882669 
L 531.521163 65.829866 
L 534.070272 119.370654 
L 536.619381 131.339766 
L 541.717599 144.183461 
L 544.266709 133.672829 
L 546.815818 121.539725 
L 549.364927 94.138394 
L 551.914036 102.47383 
L 554.463145 59.673735 
L 557.012254 47.875582 
L 559.561364 93.497202 
L 559.561364 93.497202 
" style="fill:none;stroke:#ff0000;stroke-linecap:square;stroke-width:1.5;"/>
   </g>
   <g id="patch_3">
    <path d="M 26.925 333.36 
L 26.925 7.2 
" style="fill:none;stroke:#000000;stroke-linecap:square;stroke-linejoin:miter;stroke-width:0.8;"/>
   </g>
   <g id="patch_4">
    <path d="M 584.925 333.36 
L 584.925 7.2 
" style="fill:none;stroke:#000000;stroke-linecap:square;stroke-linejoin:miter;stroke-width:0.8;"/>
   </g>
   <g id="patch_5">
    <path d="M 26.925 333.36 
L 584.925 333.36 
" style="fill:none;stroke:#000000;stroke-linecap:square;stroke-linejoin:miter;stroke-width:0.8;"/>
   </g>
   <g id="patch_6">
    <path d="M 26.925 7.2 
L 584.925 7.2 
" style="fill:none;stroke:#000000;stroke-linecap:square;stroke-linejoin:miter;stroke-width:0.8;"/>
   </g>
  </g>
 </g>
 <defs>
  <clipPath id="p76490f0ab4">
   <rect height="326.16" width="558" x="26.925" y="7.2"/>
  </clipPath>
 </defs>
</svg>
